:FULLY-SPECIFIED
:FORCE-ALL-JOINTS-BE-3DOF
:DEGREES
243
root 9.24816 16.3788 -2.55447 9.79199 -5.67558 -2.17695
lfemur -44.9448 9.18027 -23.192
ltibia 41.6786 0 0
lfoot -8.13593 5.71196 0
ltoes -1.52751 0 0
rfemur 11.6576 1.67124 20.5937
rtibia 28.882 0 0
rfoot 9.04751 5.5686 0
rtoes -14.6294 0 0
lowerback -6.41999 2.28142 -0.339445
upperback -3.0338 3.03299 1.83675
thorax 0.331136 1.53927 2.27977
lowerneck -18.205 -5.98408 -14.0836
upperneck 17.1001 -7.5605 14.7492
head 9.53113 -2.959 6.47658
lclavicle -1.84245e-14 -5.70811e-15 0
lhumerus -47.3244 -4.54994 88.7883
lradius 20.1953 0 0
lwrist -6.67603 0 0
lhand -7.35808 -22.6023 0
lfingers 7.12502 0 0
lthumb 18.5267 6.53998 0
rclavicle -1.84245e-14 -5.70811e-15 0
rhumerus -46.0697 8.45297 -86.5939
rradius 41.3453 0 0
rwrist -22.2347 0 0
rhand -29.4017 -22.9878 0
rfingers 7.12502 0 0
rthumb -2.73963 -52.9477 0
244
root 9.27502 16.3738 -2.39094 9.79763 -5.74316 -2.08218
lfemur -44.5905 9.30652 -23.382
ltibia 41.8833 0 0
lfoot -8.07557 5.60017 0
ltoes -1.26403 0 0
rfemur 11.3663 1.58804 20.3595
rtibia 29.3914 0 0
rfoot 9.29489 5.42338 0
rtoes -14.8204 0 0
lowerback -6.41271 2.2307 -0.426096
upperback -3.05395 2.97194 1.80977
thorax 0.310554 1.5082 2.29505
lowerneck -18.2733 -5.95283 -14.0538
upperneck 17.1917 -7.51712 14.7123
head 9.56649 -2.93813 6.46724
lclavicle -1.89132e-14 -5.70327e-15 0
lhumerus -46.9749 -4.57009 88.6334
lradius 20.1069 0 0
lwrist -6.89237 0 0
lhand -7.32491 -22.5837 0
lfingers 7.12502 0 0
lthumb 18.5586 6.55484 0
rclavicle -1.89132e-14 -5.70327e-15 0
rhumerus -46.2874 8.39383 -86.6661
rradius 41.1078 0 0
rwrist -22.1383 0 0
rhand -29.3251 -22.857 0
rfingers 7.12502 0 0
rthumb -2.66567 -52.8185 0
245
root 9.30188 16.3687 -2.22741 9.79485 -5.79591 -1.98765
lfemur -44.2107 9.41194 -23.5661
ltibia 42.0242 0 0
lfoot -8.04518 5.49638 0
ltoes -1.03151 0 0
rfemur 11.0278 1.50989 20.1408
rtibia 29.881 0 0
rfoot 9.46574 5.26111 0
rtoes -15.0085 0 0
lowerback -6.40451 2.1759 -0.5112
upperback -3.0669 2.90517 1.7857
thorax 0.297509 1.47413 2.31212
lowerneck -18.3409 -5.92037 -14.0222
upperneck 17.2851 -7.47212 14.6727
head 9.60209 -2.91677 6.45696
lclavicle -1.92546e-14 -5.67834e-15 0
lhumerus -46.5979 -4.61169 88.4879
lradius 20.0371 0 0
lwrist -7.07022 0 0
lhand -7.3136 -22.5718 0
lfingers 7.12502 0 0
lthumb 18.5694 6.56473 0
rclavicle -1.92546e-14 -5.67834e-15 0
rhumerus -46.4841 8.33901 -86.7249
rradius 40.8968 0 0
rwrist -22.0548 0 0
rhand -29.2575 -22.7361 0
rfingers 7.12502 0 0
rthumb -2.60042 -52.6989 0
246
root 9.32874 16.3637 -2.06389 9.78324 -5.8332 -1.89351
lfemur -43.8053 9.49529 -23.7439
ltibia 42.0975 0 0
lfoot -8.04658 5.40104 0
ltoes -0.831718 0 0
rfemur 10.6407 1.43717 19.9387
rtibia 30.3493 0 0
rfoot 9.55613 5.08119 0
rtoes -15.1936 0 0
lowerback -6.39537 2.11696 -0.594565
upperback -3.07226 2.83254 1.7647
thorax 0.292411 1.437 2.33103
lowerneck -18.4078 -5.88665 -13.9886
upperneck 17.3802 -7.42546 14.6304
head 9.63791 -2.8949 6.4457
lclavicle -1.94405e-14 -5.63276e-15 0
lhumerus -46.1926 -4.67569 88.3522
lradius 19.9866 0 0
lwrist -7.20749 0 0
lhand -7.32544 -22.567 0
lfingers 7.12502 0 0
lthumb 18.5579 6.56932 0
rclavicle -1.94405e-14 -5.63276e-15 0
rhumerus -46.6583 8.2888 -86.7698
rradius 40.714 0 0
rwrist -21.985 0 0
rhand -29.1996 -22.6256 0
rfingers 7.12502 0 0
rthumb -2.54445 -52.5896 0
247
root 9.3556 16.3586 -1.90036 9.76238 -5.85443 -1.79992
lfemur -43.374 9.55533 -23.9149
ltibia 42.0992 0 0
lfoot -8.08158 5.31458 0
ltoes -0.666402 0 0
rfemur 10.2037 1.37025 19.7541
rtibia 30.7944 0 0
rfoot 9.56213 4.88299 0
rtoes -15.3751 0 0
lowerback -6.38529 2.05378 -0.675997
upperback -3.06967 2.75391 1.74692
thorax 0.295667 1.39674 2.35183
lowerneck -18.4737 -5.85161 -13.953
upperneck 17.477 -7.37709 14.5853
head 9.67392 -2.87252 6.43342
lclavicle -1.94623e-14 -5.56597e-15 0
lhumerus -45.758 -4.76304 88.2269
lradius 19.9566 0 0
lwrist -7.30207 0 0
lhand -7.36173 -22.5698 0
lfingers 7.12502 0 0
lthumb 18.5229 6.56827 0
rclavicle -1.94623e-14 -5.56597e-15 0
rhumerus -46.8088 8.24347 -86.8
rradius 40.5611 0 0
rwrist -21.9297 0 0
rhand -29.1518 -22.5261 0
rfingers 7.12502 0 0
rthumb -2.49833 -52.4912 0
248
root 9.37276 16.371 -1.77047 9.73101 -5.85982 -1.70365
lfemur -42.9057 9.59425 -24.0856
ltibia 42.0416 0 0
lfoot -8.15395 5.23837 0
ltoes -0.52916 0 0
rfemur 9.69825 1.30636 19.5816
rtibia 31.2328 0 0
rfoot 9.47713 4.65628 0
rtoes -15.5601 0 0
lowerback -6.3728 1.9841 -0.757792
upperback -3.05862 2.66639 1.73205
thorax 0.307121 1.35186 2.37531
lowerneck -18.5417 -5.81422 -13.914
upperneck 17.5784 -7.32538 14.5354
head 9.71134 -2.84889 6.41952
lclavicle -1.93291e-14 -5.46169e-15 0
lhumerus -45.2777 -4.87213 88.1053
lradius 19.9432 0 0
lwrist -7.35705 0 0
lhand -7.42389 -22.579 0
lfingers 7.12502 0 0
lthumb 18.463 6.56281 0
rclavicle -1.93291e-14 -5.46169e-15 0
rhumerus -46.9397 8.20223 -86.8158
rradius 40.4343 0 0
rwrist -21.8884 0 0
rhand -29.1126 -22.4342 0
rfingers 7.12502 0 0
rthumb -2.4605 -52.4001 0
249
root 9.38992 16.3834 -1.64057 9.68848 -5.85033 -1.60161
lfemur -42.3909 9.61556 -24.2625
ltibia 41.9407 0 0
lfoot -8.26481 5.17309 0
ltoes -0.412002 0 0
rfemur 9.10961 1.24251 19.415
rtibia 31.6813 0 0
rfoot 9.30019 4.3926 0
rtoes -15.7553 0 0
lowerback -6.35658 1.90597 -0.84226
upperback -3.03915 2.56754 1.7196
thorax 0.326114 1.30112 2.40213
lowerneck -18.6146 -5.7736 -13.8705
upperneck 17.687 -7.26893 14.4791
head 9.75132 -2.82335 6.40349
lclavicle -1.90596e-14 -5.30595e-15 0
lhumerus -44.738 -5.00029 87.9807
lradius 19.9418 0 0
lwrist -7.37786 0 0
lhand -7.51156 -22.5928 0
lfingers 7.12502 0 0
lthumb 18.3785 6.55445 0
rclavicle -1.90596e-14 -5.30595e-15 0
rhumerus -47.0566 8.164 -86.8184
rradius 40.3279 0 0
rwrist -21.8595 0 0
rhand -29.0799 -22.3458 0
rfingers 7.12502 0 0
rthumb -2.42886 -52.3125 0
250
root 9.40708 16.3958 -1.51068 9.63537 -5.82647 -1.49414
lfemur -41.8314 9.62006 -24.4449
ltibia 41.7978 0 0
lfoot -8.41197 5.11813 0
ltoes -0.314308 0 0
rfemur 8.44182 1.17877 19.2542
rtibia 32.139 0 0
rfoot 9.03582 4.09407 0
rtoes -15.9601 0 0
lowerback -6.33685 1.81981 -0.929228
upperback -3.01168 2.45791 1.70948
thorax 0.352305 1.24481 2.43211
lowerneck -18.692 -5.72994 -13.8227
upperneck 17.8023 -7.20802 14.4168
head 9.79369 -2.79602 6.38546
lclavicle -1.86601e-14 -5.1017e-15 0
lhumerus -44.1423 -5.14692 87.8536
lradius 19.952 0 0
lwrist -7.36595 0 0
lhand -7.62336 -22.6112 0
lfingers 7.12502 0 0
lthumb 18.2707 6.54332 0
rclavicle -1.86601e-14 -5.1017e-15 0
rhumerus -47.1601 8.12865 -86.8082
rradius 40.2408 0 0
rwrist -21.8424 0 0
rhand -29.0532 -22.2609 0
rfingers 7.12502 0 0
rthumb -2.40313 -52.2282 0
251
root 9.42424 16.4082 -1.38078 9.57223 -5.78877 -1.38159
lfemur -41.229 9.60853 -24.6322
ltibia 41.6149 0 0
lfoot -8.59322 5.07291 0
ltoes -0.235454 0 0
rfemur 7.69892 1.11523 19.0989
rtibia 32.605 0 0
rfoot 8.68858 3.76275 0
rtoes -16.1738 0 0
lowerback -6.31386 1.72602 -1.01853
upperback -2.97661 2.33804 1.70158
thorax 0.385348 1.1832 2.46509
lowerneck -18.7738 -5.68343 -13.7709
upperneck 17.9239 -7.14293 14.3488
head 9.83828 -2.76703 6.36554
lclavicle -1.81369e-14 -4.85188e-15 0
lhumerus -43.4939 -5.31139 87.7245
lradius 19.9737 0 0
lwrist -7.32274 0 0
lhand -7.75793 -22.6338 0
lfingers 7.12502 0 0
lthumb 18.141 6.52952 0
rclavicle -1.81369e-14 -4.85188e-15 0
rhumerus -47.2507 8.09604 -86.7861
rradius 40.1719 0 0
rwrist -21.8363 0 0
rhand -29.0324 -22.1795 0
rfingers 7.12502 0 0
rthumb -2.38302 -52.1474 0
